<svg aria-hidden="true" style="position: absolute; width: 0; height: 0; overflow: hidden;" version="1.1" xmlns="http://www.w3.org/2000/svg" xmlns:xlink="http://www.w3.org/1999/xlink">
<defs>
<symbol id="icon-Group-3" viewBox="0 0 88 32">
<path fill="#2394bc" style="fill: var(--color1, #2394bc)" d="M29.984 0.769l-4.756 29.597h7.602l4.753-29.597h-7.599zM52.915 12.825c-2.657-1.312-4.285-2.197-4.285-3.539 0.033-1.22 1.377-2.47 4.38-2.47 2.47-0.062 4.285 0.518 5.662 1.096l0.69 0.308 1.034-6.192c-1.502-0.58-3.882-1.22-6.823-1.22-7.507 0-12.794 3.903-12.827 9.486-0.062 4.12 3.785 6.406 6.664 7.777 2.941 1.407 3.942 2.319 3.942 3.569-0.032 1.919-2.378 2.804-4.566 2.804-3.032 0-4.661-0.456-7.134-1.525l-1.001-0.456-1.063 6.436c1.786 0.794 5.070 1.492 8.479 1.528 7.978 0 13.17-3.844 13.235-9.794 0.026-3.264-2.002-5.763-6.385-7.807zM79.885 0.86h-5.882c-1.812 0-3.19 0.521-3.974 2.381l-11.292 27.125h7.978l2.197-5.873h8.926l1.14 5.896h7.037l-6.13-29.529zM71.125 18.567c0.154 0.015 3.062-9.586 3.062-9.586l2.316 9.586c0 0-3.877 0-5.378 0zM18.876 0.769l-7.448 20.109-0.811-3.966c-1.377-4.576-5.695-9.548-10.513-12.018l6.82 25.442h8.044l11.953-29.565-8.044-0.003z"></path>
</symbol>
<symbol id="icon-Group-117" viewBox="0 0 53 32">
<path fill="#ffb600" style="fill: var(--color2, #ffb600)" d="M52.759 16.528c0 8.514-6.877 15.473-15.472 15.473-8.514 0-15.473-6.959-15.473-15.473s6.877-15.472 15.391-15.472c8.678 0 15.554 6.959 15.554 15.472z"></path>
<path fill="#f7981d" style="fill: var(--color3, #f7981d)" d="M37.287 1.055c8.514 0 15.472 6.959 15.472 15.472s-6.877 15.473-15.472 15.473c-8.514 0-15.473-6.959-15.473-15.473z"></path>
<path fill="#ff8500" style="fill: var(--color4, #ff8500)" d="M37.286 1.055c8.514 0 15.473 6.959 15.473 15.472s-6.877 15.473-15.473 15.473z"></path>
<path fill="#ff5050" style="fill: var(--color5, #ff5050)" d="M16.493 1.055c-8.432 0.082-15.309 6.959-15.309 15.472s6.877 15.473 15.473 15.473c4.011 0 7.613-1.555 10.397-4.011 0.573-0.491 1.064-1.064 1.555-1.637h-3.193c-0.409-0.491-0.819-1.064-1.146-1.555h5.485c0.327-0.491 0.655-1.064 0.9-1.637h-7.286c-0.246-0.491-0.491-1.064-0.655-1.637h8.514c0.491-1.555 0.819-3.193 0.819-4.912 0-1.146-0.164-2.21-0.327-3.275h-9.496c0.082-0.573 0.246-1.064 0.409-1.637h8.514c-0.164-0.573-0.409-1.146-0.655-1.637h-7.204c0.245-0.573 0.573-1.064 0.9-1.637h5.485c-0.327-0.573-0.737-1.146-1.228-1.637h-3.029c0.491-0.573 0.982-1.064 1.555-1.555-2.702-2.538-6.385-4.011-10.397-4.011 0-0.164 0-0.164-0.082-0.164z"></path>
<path fill="#e52836" style="fill: var(--color6, #e52836)" d="M1.185 16.528c0 8.514 6.877 15.473 15.473 15.473 4.011 0 7.613-1.555 10.397-4.011 0.573-0.491 1.064-1.064 1.555-1.637h-3.193c-0.409-0.491-0.819-1.064-1.146-1.555h5.485c0.327-0.491 0.655-1.064 0.9-1.637h-7.286c-0.246-0.491-0.491-1.064-0.655-1.637h8.514c0.491-1.555 0.819-3.193 0.819-4.912 0-1.146-0.164-2.21-0.327-3.275h-9.496c0.082-0.573 0.246-1.064 0.409-1.637h8.514c-0.164-0.573-0.409-1.146-0.655-1.637h-7.204c0.245-0.573 0.573-1.064 0.9-1.637h5.485c-0.327-0.573-0.737-1.146-1.228-1.637h-3.029c0.491-0.573 0.982-1.064 1.555-1.555-2.702-2.538-6.385-4.011-10.397-4.011h-0.082z"></path>
<path fill="#cb2026" style="fill: var(--color7, #cb2026)" d="M16.658 32c4.011 0 7.613-1.555 10.397-4.011 0.573-0.491 1.064-1.064 1.555-1.637h-3.193c-0.409-0.491-0.819-1.064-1.146-1.555h5.485c0.327-0.491 0.655-1.064 0.901-1.637h-7.286c-0.245-0.491-0.491-1.064-0.655-1.637h8.514c0.491-1.555 0.819-3.193 0.819-4.912 0-1.146-0.164-2.21-0.327-3.275h-9.496c0.082-0.573 0.246-1.064 0.409-1.637h8.514c-0.164-0.573-0.409-1.146-0.655-1.637h-7.204c0.246-0.573 0.573-1.064 0.901-1.637h5.485c-0.327-0.573-0.737-1.146-1.228-1.637h-3.029c0.491-0.573 0.982-1.064 1.555-1.555-2.702-2.538-6.386-4.011-10.397-4.011h-0.082z"></path>
<path fill="#fff" style="fill: var(--color8, #fff)" d="M22.14 20.456l0.246-1.392c-0.082 0-0.246 0.082-0.409 0.082-0.573 0-0.655-0.327-0.573-0.491l0.491-2.865h0.901l0.245-1.555h-0.819l0.164-0.982h-1.637c0 0-0.982 5.403-0.982 6.058 0 0.982 0.573 1.392 1.31 1.392 0.491 0 0.9-0.164 1.064-0.246z"></path>
<path fill="#fff" style="fill: var(--color8, #fff)" d="M22.719 17.836c0 2.292 1.555 2.865 2.865 2.865 1.228 0 1.719-0.246 1.719-0.246l0.327-1.555c0 0-0.9 0.409-1.719 0.409-1.801 0-1.474-1.31-1.474-1.31h3.357c0 0 0.245-1.064 0.245-1.474 0-1.064-0.573-2.374-2.374-2.374-1.719-0.164-2.947 1.637-2.947 3.684zM25.584 15.462c0.901 0 0.737 1.064 0.737 1.146h-1.801c0-0.082 0.164-1.146 1.064-1.146z"></path>
<path fill="#fff" style="fill: var(--color8, #fff)" d="M35.989 20.456l0.327-1.801c0 0-0.819 0.409-1.392 0.409-1.146 0-1.637-0.9-1.637-1.883 0-1.965 0.982-3.029 2.128-3.029 0.819 0 1.474 0.491 1.474 0.491l0.245-1.719c0 0-0.982-0.409-1.883-0.409-1.883 0-3.766 1.637-3.766 4.748 0 2.047 0.982 3.438 2.947 3.438 0.655 0 1.555-0.246 1.555-0.246z"></path>
<path fill="#fff" style="fill: var(--color8, #fff)" d="M13.139 13.988c-1.146 0-1.965 0.327-1.965 0.327l-0.246 1.392c0 0 0.737-0.327 1.801-0.327 0.573 0 1.064 0.082 1.064 0.573 0 0.327-0.082 0.409-0.082 0.409s-0.491 0-0.737 0c-1.392 0-2.947 0.573-2.947 2.456 0 1.474 0.982 1.801 1.555 1.801 1.146 0 1.637-0.737 1.719-0.737l-0.082 0.655h1.474l0.655-4.503c0-1.965-1.637-2.047-2.21-2.047zM13.467 17.672c0 0.245-0.164 1.555-1.146 1.555-0.491 0-0.655-0.409-0.655-0.655 0-0.409 0.246-0.982 1.474-0.982 0.246 0.082 0.327 0.082 0.327 0.082z"></path>
<path fill="#fff" style="fill: var(--color8, #fff)" d="M16.905 20.619c0.409 0 2.456 0.082 2.456-2.129 0-2.047-1.965-1.637-1.965-2.456 0-0.409 0.327-0.573 0.901-0.573 0.245 0 1.146 0.082 1.146 0.082l0.246-1.474c0 0-0.573-0.164-1.555-0.164-1.228 0-2.456 0.491-2.456 2.128 0 1.883 2.047 1.719 2.047 2.456 0 0.491-0.573 0.573-0.982 0.573-0.737 0-1.474-0.246-1.474-0.246l-0.246 1.474c0.082 0.164 0.491 0.327 1.883 0.327z"></path>
<path fill="#fff" style="fill: var(--color8, #fff)" d="M49.576 12.679l-0.327 2.21c0 0-0.655-0.819-1.556-0.819-1.474 0-2.783 1.801-2.783 3.93 0 1.31 0.655 2.702 2.047 2.702 0.982 0 1.555-0.655 1.555-0.655l-0.082 0.573h1.637l1.228-7.859-1.719-0.082zM48.839 17.017c0 0.901-0.409 2.047-1.31 2.047-0.573 0-0.9-0.491-0.9-1.31 0-1.31 0.573-2.128 1.31-2.128 0.573 0 0.9 0.409 0.9 1.392z"></path>
<path fill="#fff" style="fill: var(--color8, #fff)" d="M4.221 20.538l0.982-5.894 0.164 5.894h1.146l2.129-5.894-0.901 5.894h1.719l1.31-7.859h-2.702l-1.637 4.83-0.082-4.83h-2.374l-1.31 7.859h1.555z"></path>
<path fill="#fff" style="fill: var(--color8, #fff)" d="M29.599 20.537c0.491-2.702 0.573-4.912 1.719-4.503 0.164-1.064 0.409-1.474 0.573-1.883 0 0-0.082 0-0.327 0-0.737 0-1.31 0.982-1.31 0.982l0.164-0.901h-1.555l-1.064 6.385h1.801v-0.082z"></path>
<path fill="#fff" style="fill: var(--color8, #fff)" d="M39.753 13.988c-1.146 0-1.965 0.327-1.965 0.327l-0.245 1.392c0 0 0.737-0.327 1.801-0.327 0.573 0 1.064 0.082 1.064 0.573 0 0.327-0.082 0.409-0.082 0.409s-0.491 0-0.737 0c-1.392 0-2.947 0.573-2.947 2.456 0 1.474 0.982 1.801 1.555 1.801 1.146 0 1.637-0.737 1.719-0.737l-0.082 0.655h1.474l0.655-4.503c0.082-1.965-1.637-2.047-2.21-2.047zM40.162 17.672c0 0.245-0.164 1.555-1.146 1.555-0.491 0-0.655-0.409-0.655-0.655 0-0.409 0.246-0.982 1.474-0.982 0.246 0.082 0.246 0.082 0.327 0.082z"></path>
<path fill="#fff" style="fill: var(--color8, #fff)" d="M43.349 20.537c0.491-2.702 0.573-4.912 1.719-4.503 0.164-1.064 0.409-1.474 0.573-1.883 0 0-0.082 0-0.327 0-0.737 0-1.31 0.982-1.31 0.982l0.164-0.901h-1.556l-1.064 6.385h1.801v-0.082z"></path>
<path fill="#dce5e5" style="fill: var(--color9, #dce5e5)" d="M19.606 19.31c0 0.982 0.573 1.392 1.31 1.392 0.573 0 1.064-0.164 1.228-0.246l0.245-1.392c-0.082 0-0.245 0.082-0.409 0.082-0.573 0-0.655-0.327-0.573-0.491l0.491-2.865h0.901l0.245-1.555h-0.819l0.164-0.982z"></path>
<path fill="#dce5e5" style="fill: var(--color9, #dce5e5)" d="M23.534 17.836c0 2.292 0.737 2.865 2.047 2.865 1.228 0 1.719-0.246 1.719-0.246l0.327-1.555c0 0-0.9 0.409-1.719 0.409-1.801 0-1.474-1.31-1.474-1.31h3.357c0 0 0.246-1.064 0.246-1.474 0-1.064-0.573-2.374-2.374-2.374-1.719-0.164-2.129 1.637-2.129 3.684zM25.581 15.462c0.901 0 1.064 1.064 1.064 1.146h-2.129c0-0.082 0.164-1.146 1.064-1.146z"></path>
<path fill="#dce5e5" style="fill: var(--color9, #dce5e5)" d="M35.986 20.456l0.327-1.801c0 0-0.819 0.409-1.392 0.409-1.146 0-1.637-0.9-1.637-1.883 0-1.965 0.982-3.029 2.129-3.029 0.819 0 1.474 0.491 1.474 0.491l0.246-1.719c0 0-0.982-0.409-1.883-0.409-1.883 0-2.947 1.637-2.947 4.748 0 2.047 0.164 3.438 2.129 3.438 0.655 0 1.555-0.246 1.555-0.246z"></path>
<path fill="#dce5e5" style="fill: var(--color9, #dce5e5)" d="M10.929 15.789c0 0 0.737-0.327 1.801-0.327 0.573 0 1.064 0.082 1.064 0.573 0 0.327-0.082 0.409-0.082 0.409s-0.491 0-0.737 0c-1.392 0-2.947 0.573-2.947 2.456 0 1.474 0.982 1.801 1.555 1.801 1.146 0 1.637-0.737 1.719-0.737l-0.082 0.655h1.474l0.655-4.503c0-1.883-1.637-1.965-2.292-1.965l-2.128 1.637zM14.285 17.672c0 0.246-0.982 1.555-1.965 1.555-0.491 0-0.655-0.409-0.655-0.655 0-0.409 0.246-0.982 1.474-0.982 0.246 0.082 1.146 0.082 1.146 0.082z"></path>
<path fill="#dce5e5" style="fill: var(--color9, #dce5e5)" d="M15.106 20.455c0 0 0.491 0.164 1.883 0.164 0.409 0 2.456 0.082 2.456-2.129 0-2.047-1.965-1.637-1.965-2.456 0-0.409 0.327-0.573 0.9-0.573 0.246 0 1.146 0.082 1.146 0.082l0.246-1.474c0 0-0.573-0.164-1.555-0.164-1.228 0-1.637 0.491-1.637 2.128 0 1.883 1.228 1.719 1.228 2.456 0 0.491-0.573 0.573-0.982 0.573z"></path>
<path fill="#dce5e5" style="fill: var(--color9, #dce5e5)" d="M49.244 14.889c0 0-0.655-0.819-1.556-0.819-1.474 0-1.965 1.801-1.965 3.93 0 1.31-0.164 2.702 1.228 2.702 0.982 0 1.556-0.655 1.556-0.655l-0.082 0.573h1.637l1.228-7.859-2.047 2.128zM49.162 17.017c0 0.9-0.737 2.047-1.637 2.047-0.573 0-0.901-0.491-0.901-1.31 0-1.31 0.573-2.128 1.31-2.128 0.573 0 1.228 0.409 1.228 1.392z"></path>
<path fill="#dce5e5" style="fill: var(--color9, #dce5e5)" d="M4.221 20.538l0.982-5.894 0.164 5.894h1.146l2.129-5.894-0.901 5.894h1.719l1.31-7.859h-2.047l-2.292 4.83-0.082-4.83h-0.901l-2.783 7.859h1.555z"></path>
<path fill="#dce5e5" style="fill: var(--color9, #dce5e5)" d="M27.878 20.537h1.719c0.491-2.702 0.573-4.912 1.719-4.503 0.164-1.064 0.409-1.474 0.573-1.883 0 0-0.082 0-0.327 0-0.737 0-1.31 0.982-1.31 0.982l0.164-0.901z"></path>
<path fill="#dce5e5" style="fill: var(--color9, #dce5e5)" d="M37.543 15.789c0 0 0.737-0.327 1.801-0.327 0.573 0 1.064 0.082 1.064 0.573 0 0.327-0.082 0.409-0.082 0.409s-0.491 0-0.737 0c-1.392 0-2.947 0.573-2.947 2.456 0 1.474 0.982 1.801 1.555 1.801 1.146 0 1.637-0.737 1.719-0.737l-0.082 0.655h1.474l0.655-4.503c0-1.883-1.637-1.965-2.292-1.965l-2.128 1.637zM40.899 17.672c0 0.246-0.982 1.555-1.965 1.555-0.491 0-0.655-0.409-0.655-0.655 0-0.409 0.245-0.982 1.474-0.982 0.327 0.082 1.146 0.082 1.146 0.082z"></path>
<path fill="#dce5e5" style="fill: var(--color9, #dce5e5)" d="M41.635 20.537h1.719c0.491-2.702 0.573-4.912 1.719-4.503 0.164-1.064 0.409-1.474 0.573-1.883 0 0-0.082 0-0.327 0-0.737 0-1.31 0.982-1.31 0.982l0.164-0.901z"></path>
</symbol>
<symbol id="icon-Group-118" viewBox="0 0 28 32">
<path fill="#03a9f4" style="fill: var(--color10, #03a9f4)" d="M24.248 7.359c-0.195-0.115-0.435-0.123-0.637-0.021s-0.339 0.299-0.363 0.524c-0.024 0.219-0.061 0.437-0.108 0.667-1.305 5.924-3.927 8.805-8.016 8.805h-6c-0.316 0.001-0.589 0.223-0.652 0.533l-2 9.375-0.357 2.387c-0.205 1.085 0.508 2.132 1.593 2.337 0.12 0.023 0.241 0.034 0.363 0.035h4.013c0.92 0.003 1.722-0.625 1.94-1.519l1.621-6.481h3.479c4.105 0 6.943-3.273 7.989-9.217 0.691-2.83-0.452-5.792-2.865-7.424z"></path>
<path fill="#283593" style="fill: var(--color11, #283593)" d="M22.989 2.376c-1.317-1.494-3.208-2.358-5.2-2.376h-11.040c-1.652-0.009-3.059 1.2-3.299 2.835l-3.428 22.868c-0.164 1.092 0.588 2.111 1.68 2.275 0.099 0.015 0.199 0.022 0.3 0.022h5.12c0.316-0.001 0.589-0.223 0.652-0.533l1.887-8.8h5.467c4.744 0 7.879-3.316 9.319-9.867 0.058-0.261 0.102-0.525 0.133-0.791 0.334-2.021-0.249-4.086-1.591-5.633z"></path>
</symbol>
</defs>
</svg>
